<svg width="48" height="48" viewBox="0 0 48 48" fill="none" xmlns="http://www.w3.org/2000/svg">
<path d="M23.9512 0.464844C11.0605 0.464844 0.513672 11.0117 0.513672 23.9023C0.513672 36.793 11.0605 47.3398 23.9512 47.3398C32.291 47.3398 39.6543 42.9258 43.8047 36.3145C43.8841 36.1888 43.9195 36.0404 43.9055 35.8924C43.8914 35.7445 43.8285 35.6054 43.7269 35.497C43.6252 35.3886 43.4904 35.317 43.3436 35.2935C43.1969 35.27 43.0465 35.296 42.916 35.3672C42.3446 35.7026 41.743 35.9838 41.1191 36.207C37.5254 37.4375 35.543 37.4863 33.1016 37.3789C30.377 37.2617 27.0566 36.3242 24.7227 34.9375C22.3887 33.5508 20.4746 31.5586 19.4395 29.8301C18.4043 28.1016 17.7793 25.9336 18.0625 23.1602C18.3457 20.3281 20.9336 18.0234 23.9609 18.0234C27.2324 18.0234 29.8984 20.6211 29.8984 23.8926C29.8984 25.5527 29.1074 26.9883 28.0918 28.1406C27.8672 28.3457 27.3496 29.0879 28.6582 30.0938C30.2109 31.2852 33.6973 31.8516 36.4609 31.7148C39.2246 31.5781 42.2324 30.4844 44.293 28.3164C45.9336 26.5879 47.3984 23.8145 47.3984 20.7578C47.3887 8.54102 36.0605 0.464844 23.9512 0.464844Z" fill="white"/>
</svg>
